<?xml version="1.0" standalone="no"?>
<!DOCTYPE svg PUBLIC "-//W3C//DTD SVG 20010904//EN"
 "http://www.w3.org/TR/2001/REC-SVG-20010904/DTD/svg10.dtd">
<svg version="1.0" xmlns="http://www.w3.org/2000/svg"
 width="384.000000pt" height="384.000000pt" viewBox="0 0 384.000000 384.000000"
 preserveAspectRatio="xMidYMid meet">
<metadata>
Created by potrace 1.11, written by Peter Selinger 2001-2013
</metadata>
<g transform="translate(0.000000,384.000000) scale(0.100000,-0.100000)"
fill="#000000" stroke="none">
<path d="M1566 3490 c-328 -60 -639 -223 -876 -460 -239 -239 -402 -551 -461
-885 -29 -166 -29 -403 0 -569 25 -140 89 -340 132 -411 17 -27 28 -41 25 -30
-49 177 -71 410 -55 589 34 401 199 756 484 1042 398 399 954 570 1498 460
158 -32 272 -72 422 -147 202 -100 402 -259 536 -427 87 -108 88 -108 33 -4
-130 243 -332 460 -570 614 -137 88 -368 181 -549 220 -139 30 -473 34 -619 8z"/>
<path d="M1898 2683 c-32 -8 -58 -19 -58 -23 0 -4 26 -24 57 -45 l58 -38 -65
-19 c-36 -10 -72 -18 -81 -18 -9 0 -41 18 -73 41 l-57 41 -74 -18 c-41 -10
-75 -21 -75 -25 0 -4 25 -23 55 -41 30 -18 55 -35 55 -39 0 -7 -112 -39 -136
-39 -8 0 -34 13 -57 29 -75 50 -78 51 -143 35 -32 -8 -65 -17 -73 -20 -10 -3
5 -18 40 -41 30 -20 56 -38 58 -39 9 -8 -8 -15 -74 -33 l-67 -19 -63 44 -62
44 -59 -16 c-105 -26 -103 -22 -35 -67 34 -22 60 -42 58 -44 -3 -2 -35 -12
-73 -23 l-68 -20 -65 45 -66 44 -102 -27 -103 -27 0 -117 c0 -98 3 -118 15
-118 13 0 15 -63 17 -482 l3 -483 705 -3 c484 -2 717 1 742 8 69 20 68 14 68
515 l0 445 -35 0 c-19 0 -35 3 -35 7 0 4 23 31 52 60 l52 53 -80 0 -80 0 -52
-60 -53 -60 -75 0 c-41 0 -74 3 -74 6 0 4 21 30 48 58 l47 51 -74 3 -75 3 -61
-61 -61 -60 -72 0 c-39 0 -72 3 -72 7 0 4 23 31 52 60 l52 53 -80 0 -81 0 -57
-60 -57 -60 -76 0 -75 0 52 60 52 60 -75 0 -76 0 -57 -60 -57 -60 -74 0 c-40
0 -73 3 -73 7 0 4 23 31 52 60 l52 53 -86 0 c-48 0 -89 4 -93 9 -7 12 71 33
832 232 65 16 147 39 183 49 36 10 130 35 210 56 140 36 170 47 170 64 0 11
-111 80 -125 79 -5 -1 -36 -8 -67 -16z m-1200 -745 c9 -9 12 -9 12 0 0 7 5 12
10 12 6 0 10 -7 10 -14 0 -11 -12 -14 -50 -13 -32 1 -50 6 -50 15 0 16 52 16
68 0z m1000 -215 c-197 -2 -519 -2 -715 0 -197 1 -36 2 357 2 393 0 554 -1
358 -2z m-868 -40 c0 -16 -33 -15 -74 2 -14 6 -17 5 -12 -3 5 -9 -10 -12 -53
-12 -46 0 -61 4 -61 14 0 11 21 14 100 15 84 0 100 -2 100 -16z m868 -120
c-197 -2 -519 -2 -715 0 -197 1 -36 2 357 2 393 0 554 -1 358 -2z m-1058 -34
c0 -8 4 -8 13 -1 15 12 147 14 147 1 0 -5 -13 -9 -30 -10 -115 -4 -144 -2
-148 9 -2 7 1 12 7 12 6 0 11 -5 11 -11z m80 -187 c0 -5 -15 -9 -34 -10 -19
-1 -39 -3 -46 -4 -7 -2 -15 3 -17 10 -3 8 10 12 46 12 28 0 51 -4 51 -8z m480
-1 c0 -13 -68 -19 -80 -7 -7 7 -10 6 -10 -1 0 -6 -9 -9 -20 -6 -41 11 -18 23
45 23 36 0 65 -4 65 -9z m450 -4 c0 -8 -14 -11 -45 -9 -25 2 -45 8 -45 13 0 5
20 9 45 9 29 0 45 -4 45 -13z"/>
<path d="M2240 2030 c-13 -8 -15 -61 -18 -356 -2 -252 0 -350 9 -360 12 -15
56 -19 76 -6 10 6 13 88 15 330 l3 321 124 -324 c69 -178 131 -327 139 -330
24 -9 59 -5 70 8 5 6 67 156 138 332 l129 320 3 -327 2 -328 24 -6 c14 -3 34
-3 45 1 21 6 21 11 21 359 0 260 -3 355 -12 364 -20 20 -114 15 -135 -7 -10
-11 -67 -139 -127 -284 -109 -267 -122 -295 -128 -287 -2 3 -52 129 -112 280
-60 151 -117 283 -128 293 -22 19 -112 24 -138 7z"/>
<path d="M3230 2015 c-11 -28 -14 -643 -4 -682 6 -23 9 -23 158 -23 137 0 156
2 201 24 28 13 63 37 77 54 32 38 50 114 39 164 -16 71 -44 103 -129 145 -2 1
12 16 32 35 86 80 67 225 -36 280 -37 19 -62 23 -185 26 l-143 4 -10 -27z
m306 -88 c18 -21 24 -40 24 -75 0 -96 -47 -132 -167 -132 l-73 0 0 121 0 121
96 -4 c91 -3 97 -5 120 -31z m0 -299 c62 -30 89 -109 58 -173 -25 -54 -76 -75
-186 -75 l-88 0 0 136 0 137 94 -6 c52 -3 107 -11 122 -19z"/>
</g>
</svg>
